<?xml version="1.0" standalone="no"?>
<!-- Generator: Adobe Fireworks 10, Export SVG Extension by Aaron Beall (http://fireworks.abeall.com) . Version: 0.6.1  -->
<!DOCTYPE svg PUBLIC "-//W3C//DTD SVG 1.1//EN" "http://www.w3.org/Graphics/SVG/1.1/DTD/svg11.dtd">
<svg id="Untitled-%u30DA%u30FC%u30B8%201" viewBox="0 0 140 104" style="background-color:#ffffff00" version="1.1"
	xmlns="http://www.w3.org/2000/svg" xmlns:xlink="http://www.w3.org/1999/xlink" xml:space="preserve"
	x="0px" y="0px" width="140px" height="104px"
>
	<g>
		<path d="M 31.024 0.3501 C 25.2224 1.1617 20.384 2.8989 16.2848 5.6964 C 9.5871 10.231 4.9504 16.9323 2.9344 25.0081 C 1.8144 29.4529 1.4112 36.762 2.016 41.6352 C 3.136 50.7045 6.496 57.6751 12.5889 63.5406 C 16.8672 67.6689 22.0192 70.2407 28.5152 71.4587 C 31.4049 71.9998 38.1249 71.9998 40.8351 71.4587 C 45.3824 70.5343 49.952 68.5035 53.6704 65.7061 C 57.7024 62.6829 63.4816 56.2764 67.6704 50.1853 C 68.5664 48.8763 69.3504 47.7712 69.44 47.7263 C 69.5071 47.6814 70.6271 49.2148 71.8817 51.1328 C 78.512 61.2163 84.448 66.5637 92.6017 69.8344 C 99.12 72.4292 107.7663 72.5869 115.584 70.2637 C 118.3617 69.4291 122.9759 67.0829 125.2832 65.3227 C 135.1169 57.788 139.8658 46.4174 138.8801 32.6107 C 138.5888 28.5273 138.0512 25.6401 136.9983 22.5042 C 135.2063 17.09 132.3168 12.5323 128.1728 8.5387 C 125.0368 5.5386 121.7216 3.486 117.824 2.0873 C 108.3263 -1.2513 97.776 -0.5076 89.936 4.118 C 84.2912 7.4335 78.064 14.1348 71.792 23.6324 L 70.7169 25.2567 L 68.32 21.6016 C 57.4336 5.0873 45.584 -1.6807 31.024 0.3501 ZM 108.416 9.713 C 113.2992 10.231 117.4657 12.1719 121.1617 15.6912 C 124.9248 19.2784 127.456 23.9029 128.688 29.4529 C 129.1808 31.6403 129.3823 38.025 129.0463 40.3942 C 128.1951 46.2366 125.6864 51.2007 121.5648 55.2161 C 118.496 58.2162 115.584 59.8176 111.776 60.5854 C 108.9983 61.1495 103.7791 60.9457 100.688 60.156 C 98.0448 59.4572 94.528 57.788 92.5119 56.2315 C 88.7039 53.3212 84.2912 47.5685 78.6463 38.2057 L 76.5632 34.7543 L 77.4143 33.2427 C 82.0737 24.7594 86.912 18.8491 92.7809 14.4272 C 96.1631 11.9003 99.5232 10.3899 103.152 9.8257 C 105.4816 9.4413 105.7057 9.4413 108.416 9.713 ZM 35.1456 11.0656 C 42.6496 11.8553 48.72 15.6233 54.544 23.1581 C 56.5151 25.662 60.1216 31.0773 62.2496 34.6864 L 63.8849 37.439 L 62.6976 39.4236 C 58.8224 45.9211 55.6192 50.2981 52.3264 53.5917 C 48.4735 57.4265 44.9641 59.6855 40.768 61.1944 C 36.9788 62.5571 31.4043 62.13 28.112 61.3073 C 17.5943 58.6794 11.1776 48.1545 11.2 35.7466 C 11.2224 28.6172 13.1712 23.1132 17.472 18.0823 C 21.2576 13.6605 26.3649 11.1566 32.2784 10.863 C 32.6145 10.863 33.8912 10.9528 35.1456 11.0656 Z" fill="#ffffff"/>
		<path d="M 96.096 27.3201 L 96.096 34.3134 L 92.848 34.3134 C 89.6449 34.3134 89.6 34.3134 89.824 34.7639 C 90.048 35.1699 90.2943 35.2152 92.96 35.2152 C 94.5728 35.2152 95.872 35.2609 95.872 35.328 C 95.872 35.3956 95.5136 36.3664 95.088 37.4946 C 94.0351 40.2687 92.7137 42.7507 90.8097 45.6379 C 89.4657 47.6691 89.2416 48.0974 89.5103 48.3226 C 89.7568 48.5256 89.936 48.5034 90.2943 48.1649 C 91.168 47.3755 94.0577 43.3367 95.0208 41.5776 L 95.984 39.8404 L 96.0512 46.0896 L 96.096 52.3611 L 97.104 52.3611 L 98.112 52.3611 L 98.112 45.8191 C 98.112 42.2089 98.2017 39.2763 98.2912 39.2763 C 98.5823 39.2763 101.1583 42.0508 101.6737 42.9084 C 102.3232 44.0366 102.704 44.3071 103.3537 44.1494 C 104.1377 43.946 104.2719 43.0431 103.712 41.8481 C 103.1743 40.743 101.472 39.4793 99.3889 38.6224 L 98.112 38.1036 L 98.112 36.66 L 98.112 35.2152 L 101.2257 35.2152 C 104.9663 35.2152 105.1008 35.102 103.6897 33.275 C 103.1743 32.5984 102.6816 32.0574 102.5921 32.0574 C 102.5023 32.0574 102.0991 32.5532 101.6961 33.1856 L 100.9792 34.3134 L 99.5456 34.3134 L 98.112 34.3134 L 98.112 28.1544 L 98.112 22.0176 L 98.784 21.6339 C 99.1649 21.4316 99.456 21.1381 99.456 21.0034 C 99.456 20.6415 98.4257 20.3264 97.1937 20.3264 L 96.096 20.3264 L 96.096 27.3201 Z" fill="#ffffff"/>
		<path d="M 114.9119 31.3356 L 114.9119 41.9614 L 114.1503 42.1636 C 113.7248 42.2994 111.3056 42.9084 108.7743 43.5623 C 104.4288 44.6905 103.6449 45.029 104.3617 45.4802 C 104.496 45.5486 106.96 45.0059 109.8497 44.2626 L 115.136 42.9307 L 115.136 47.6457 L 115.136 52.3611 L 116.256 52.3611 L 117.376 52.3611 L 117.4208 47.3521 L 117.488 42.3443 L 119.4143 41.87 C 120.4672 41.5995 121.4528 41.3059 121.6096 41.2165 C 122.1024 40.9007 121.8336 40.2687 120.7583 39.1857 L 119.6832 38.1036 L 119.168 39.5687 C 118.6752 40.9905 118.3617 41.2841 117.4432 41.3059 C 117.2191 41.3059 117.152 39.2763 117.152 31.8763 L 117.152 22.4689 L 117.8688 22.0637 C 118.496 21.7021 118.5408 21.6339 118.2271 21.2958 C 118.0031 21.0928 117.2863 20.912 116.3903 20.8445 L 114.9119 20.7098 L 114.9119 31.3356 Z" fill="#ffffff"/>
		<path d="M 101.4049 25.4248 C 101.0688 26.756 100.4191 28.7852 99.9937 29.9583 C 99.3889 31.5609 99.2543 32.1698 99.456 32.3724 C 99.8143 32.7339 100.2849 32.0344 102.1663 28.38 C 103.3312 26.1006 103.8912 25.1996 104.2943 25.0637 C 105.1008 24.7483 104.944 24.2736 103.8912 23.7548 C 101.9648 22.8522 102.0991 22.7625 101.4049 25.4248 Z" fill="#ffffff"/>
		<path d="M 90.2943 23.5518 C 90.1152 23.8005 90.2272 24.2505 90.832 25.5595 C 91.2577 26.507 91.7503 28.1083 91.952 29.2595 C 92.1537 30.3647 92.3776 31.4933 92.4223 31.7639 C 92.5568 32.4404 93.3183 32.6434 93.8783 32.1468 C 94.4608 31.6292 94.4608 29.5301 93.8783 27.9955 C 93.4528 26.8685 91.8177 24.3864 91.0112 23.6416 C 90.6303 23.3035 90.5183 23.3035 90.2943 23.5518 Z" fill="#ffffff"/>
		<path d="M 106.5791 24.2057 C 106.5119 24.3634 107.1168 25.1082 107.9008 25.8531 C 108.6623 26.5972 109.6479 27.8159 110.0289 28.5377 C 110.88 30.0712 111.44 30.5224 112.1791 30.2289 C 112.9408 29.9368 112.8511 28.5596 112.0222 27.3646 C 110.8351 25.7176 106.848 23.4163 106.5791 24.2057 Z" fill="#ffffff"/>
		<path d="M 104.944 32.0789 C 104.8542 32.2151 105.4816 33.0497 106.3551 33.9293 C 107.2737 34.8998 108.192 36.1404 108.64 37.0199 C 109.6257 38.9827 110.0289 39.2303 110.9023 38.3511 C 111.8432 37.4033 110.9697 35.6216 108.752 33.9293 C 107.6097 33.0497 105.5263 31.8314 105.1903 31.8314 C 105.1232 31.8314 105.0112 31.9442 104.944 32.0789 Z" fill="#ffffff"/>
		<path d="M 26.0512 20.0329 C 24.9312 23.3265 22.9152 26.756 20.3168 29.892 C 19.488 30.8609 19.3984 31.3801 20.048 31.3801 C 20.2049 31.3801 21.2128 30.5455 22.2656 29.5086 L 24.192 27.6582 L 24.192 30.1843 L 24.192 32.7339 L 21.28 32.7339 C 18.4129 32.7339 18.368 32.7339 18.592 33.1856 C 18.816 33.5908 19.0624 33.6368 21.504 33.6368 L 24.192 33.6368 L 24.192 37.584 L 24.192 41.5316 L 21.5264 41.5316 C 18.9729 41.5316 18.8609 41.5546 18.9729 41.9828 C 19.0848 42.4341 19.2864 42.4341 34.2944 42.4341 C 47.9136 42.4341 49.5264 42.3896 49.6609 42.0742 C 49.8176 41.6448 49.504 41.0354 48.5408 39.8623 L 47.8016 39.0058 L 46.9729 40.2687 C 46.2336 41.3969 46.0544 41.5316 45.36 41.5316 L 44.576 41.5316 L 44.576 37.584 L 44.576 33.6368 L 47.3536 33.6368 C 49.5712 33.6368 50.1536 33.5685 50.2432 33.298 C 50.3329 33.1173 49.9296 32.3724 49.3471 31.5827 L 48.3392 30.1843 L 47.9136 30.7262 C 47.6896 31.019 47.3312 31.6061 47.1071 31.9891 C 46.7489 32.666 46.6144 32.7339 45.6512 32.7339 L 44.576 32.7339 L 44.576 29.1237 L 44.576 25.5146 L 46.7935 25.5146 C 49.7504 25.5146 49.952 25.289 48.496 23.597 C 47.936 22.9197 47.4208 22.3557 47.376 22.3557 C 47.3536 22.3557 46.928 22.8522 46.4576 23.4839 L 45.6064 24.6124 L 36.0192 24.6124 C 30.7552 24.6124 26.432 24.5441 26.432 24.4317 C 26.432 23.98 27.9776 21.7916 28.3584 21.7021 C 29.7472 21.4535 29.4336 20.7992 27.6416 20.1004 C 26.1631 19.5586 26.2304 19.5586 26.0512 20.0329 ZM 30.24 29.1237 L 30.24 32.7339 L 28.336 32.7339 L 26.432 32.7339 L 26.432 29.1237 L 26.432 25.5146 L 28.336 25.5146 L 30.24 25.5146 L 30.24 29.1237 ZM 36.288 29.1237 L 36.288 32.7339 L 34.272 32.7339 L 32.256 32.7339 L 32.256 29.1237 L 32.256 25.5146 L 34.272 25.5146 L 36.288 25.5146 L 36.288 29.1237 ZM 42.336 29.1237 L 42.336 32.7339 L 40.32 32.7339 L 38.304 32.7339 L 38.304 29.1237 L 38.304 25.5146 L 40.32 25.5146 L 42.336 25.5146 L 42.336 29.1237 ZM 30.24 37.584 L 30.24 41.5316 L 28.336 41.5316 L 26.432 41.5316 L 26.432 37.584 L 26.432 33.6368 L 28.336 33.6368 L 30.24 33.6368 L 30.24 37.584 ZM 36.288 37.584 L 36.288 41.5316 L 34.272 41.5316 L 32.256 41.5316 L 32.256 37.584 L 32.256 33.6368 L 34.272 33.6368 L 36.288 33.6368 L 36.288 37.584 ZM 42.336 37.584 L 42.336 41.5316 L 40.32 41.5316 L 38.304 41.5316 L 38.304 37.584 L 38.304 33.6368 L 40.32 33.6368 L 42.336 33.6368 L 42.336 37.584 Z" fill="#ffffff"/>
		<path d="M 42.9408 43.8328 C 42.896 43.9905 43.5904 44.9161 44.4864 45.8867 C 45.6512 47.1495 46.4128 48.2098 47.0848 49.6085 C 47.8689 51.2099 48.1376 51.5933 48.608 51.6393 C 49.504 51.7521 49.9968 51.2099 49.9968 50.1726 C 49.9744 48.2328 48.4512 46.4496 45.248 44.5547 C 43.4785 43.4948 43.0976 43.382 42.9408 43.8328 Z" fill="#ffffff"/>
		<path d="M 24.0352 44.1943 C 23.2064 46.6085 21.7504 48.5931 19.6449 50.1726 C 18.704 50.8945 18.592 51.4586 19.2864 52.1573 C 20.6976 53.5791 23.52 50.6692 24.528 46.7884 C 24.9536 45.1188 24.9536 44.1034 24.528 43.9238 C 24.304 43.8559 24.1248 43.946 24.0352 44.1943 Z" fill="#ffffff"/>
		<path d="M 28.9631 43.9691 C 28.7616 44.1034 28.8064 44.4879 29.1425 45.5931 C 29.456 46.5409 29.6351 47.8483 29.7024 49.2931 C 29.7696 51.6393 29.904 51.9098 30.8448 51.9098 C 32.3904 51.9098 32.704 49.4063 31.4496 46.9009 C 30.8671 45.7278 29.568 43.8113 29.344 43.7883 C 29.2768 43.7883 29.12 43.8777 28.9631 43.9691 Z" fill="#ffffff"/>
		<path d="M 35.7504 43.9905 C 35.6832 44.1034 36.064 45.0508 36.6016 46.0666 C 37.184 47.1944 37.744 48.6845 37.968 49.7214 C 38.2816 51.165 38.4608 51.5487 38.8864 51.7291 C 39.2896 51.9098 39.536 51.8868 39.984 51.5933 C 40.4544 51.2778 40.544 51.0522 40.544 50.0821 C 40.544 48.5256 39.7824 47.105 37.9456 45.2765 C 36.4896 43.8328 35.9969 43.5623 35.7504 43.9905 Z" fill="#ffffff"/>
		<path d="M 28.336 81.6793 C 27.7088 81.9268 26.7232 83.0319 26.4544 83.7768 C 26.32 84.1382 26.208 85.0627 26.208 85.8743 L 26.208 87.3191 L 25.088 87.3191 C 24.1248 87.3191 23.968 87.3859 23.968 87.7704 C 23.968 88.1537 24.1248 88.2216 25.088 88.2216 L 26.208 88.2216 L 26.208 92.7551 C 26.208 95.373 26.1184 97.4475 25.984 97.6962 C 25.8495 97.9449 25.4016 98.1924 24.976 98.2822 C 24.528 98.3501 24.192 98.5538 24.192 98.7335 C 24.192 98.9821 24.7744 99.05 27.104 99.05 C 29.4336 99.05 30.016 98.9821 30.016 98.7335 C 30.016 98.5538 29.6575 98.3731 29.12 98.2822 C 28.5824 98.1924 28.1569 97.9667 28 97.7181 C 27.8656 97.4475 27.776 95.4179 27.776 92.7551 L 27.776 88.2216 L 29.456 88.2216 C 30.9792 88.2216 31.136 88.1756 31.136 87.7704 C 31.136 87.364 30.9792 87.3191 29.456 87.3191 L 27.776 87.3191 L 27.776 85.8524 C 27.776 83.4614 28.5376 82.1524 29.904 82.1294 C 30.8224 82.1294 31.024 82.3331 31.024 83.2576 C 31.024 84.0024 31.0688 84.0473 31.808 84.0473 C 32.5471 84.0473 32.592 84.0024 32.6591 83.2127 C 32.7265 82.4678 32.6368 82.3101 31.9872 81.9037 C 31.2032 81.4306 29.2096 81.2947 28.336 81.6793 Z" fill="#ffffff"/>
		<path d="M 0.112 81.9037 C -0.112 82.2883 0.224 82.5807 0.8512 82.5807 C 1.1872 82.5807 1.7024 82.7395 1.9711 82.9421 C 2.464 83.2806 2.464 83.3025 2.464 90.3641 C 2.464 98.2603 2.5089 97.9897 0.896 98.2603 C 0.336 98.3501 0 98.5308 0 98.7335 C 0 98.9821 0.6048 99.05 3.36 99.05 C 6.1152 99.05 6.72 98.9821 6.72 98.7335 C 6.72 98.5308 6.384 98.3501 5.824 98.2603 C 4.256 97.9897 4.256 97.9897 4.256 90.3641 C 4.256 82.8063 4.256 82.8524 5.7345 82.6037 C 6.3169 82.5139 6.6304 82.3331 6.6752 82.0626 C 6.7424 81.7242 6.4736 81.6793 3.4944 81.6793 C 1.568 81.6793 0.2016 81.769 0.112 81.9037 Z" fill="#ffffff"/>
		<path d="M 33.824 82.0165 C 33.6671 82.1973 33.5551 82.6037 33.5551 82.9191 C 33.5551 83.687 33.9808 84.1602 34.6976 84.1602 C 35.4592 84.1602 35.84 83.7768 35.84 83.0319 C 35.84 81.9268 34.4736 81.2499 33.824 82.0165 Z" fill="#ffffff"/>
		<path d="M 56.448 82.0165 C 56.2912 82.1973 56.1791 82.6037 56.1791 82.9191 C 56.1791 83.687 56.6048 84.1602 57.3216 84.1602 C 58.0832 84.1602 58.464 83.7768 58.464 83.0319 C 58.464 81.9268 57.0976 81.2499 56.448 82.0165 Z" fill="#ffffff"/>
		<path d="M 90.16 81.9037 C 89.936 82.2883 90.272 82.5807 90.8991 82.5807 C 91.2351 82.5807 91.7503 82.7395 92.0192 82.9421 C 92.5119 83.2806 92.5119 83.3025 92.5119 90.3422 C 92.5119 98.2372 92.5792 97.9449 90.8991 98.2603 C 90.4064 98.3501 90.048 98.5538 90.048 98.7335 C 90.048 98.9821 90.6977 99.05 93.5201 99.05 C 96.3201 99.05 96.9919 98.9821 96.9919 98.7335 C 96.9919 98.5538 96.6337 98.3731 96.0512 98.2822 C 94.3489 98.0117 94.304 97.877 94.304 93.9064 L 94.304 90.4089 L 96.208 90.5218 C 98.3808 90.6346 98.9408 90.9731 99.2097 92.3039 C 99.2991 92.7551 99.5232 93.0936 99.7472 93.1385 C 100.0831 93.2064 100.1279 92.914 100.1279 90.1384 C 100.1279 87.364 100.0831 87.0704 99.7472 87.1384 C 99.5232 87.1832 99.2991 87.5217 99.2097 87.973 C 98.9408 89.3038 98.3808 89.6423 96.208 89.7551 L 94.304 89.8679 L 94.304 86.5512 C 94.304 82.3781 94.192 82.4908 98.1568 82.6037 C 101.9423 82.7165 102.8831 83.3025 103.1968 85.7615 C 103.2863 86.3037 103.4431 86.6422 103.6223 86.6422 C 103.9583 86.6422 104.048 84.6345 103.8017 82.7165 L 103.6449 81.6793 L 96.9697 81.6793 C 92.7583 81.6793 90.2496 81.769 90.16 81.9037 Z" fill="#ffffff"/>
		<path d="M 63.8624 85.0627 C 63.5489 86.3256 62.5856 87.3191 61.6671 87.3191 C 61.264 87.3191 61.1296 87.4319 61.1969 87.7025 C 61.2416 87.996 61.5328 88.1307 62.2272 88.1756 L 63.168 88.2435 L 63.168 92.282 C 63.168 96.9514 63.392 98.395 64.2209 99.05 C 65.296 99.8846 67.3568 99.5681 68.4095 98.395 C 68.7456 98.0347 68.7905 97.8539 68.5888 97.6513 C 68.3871 97.4475 68.2079 97.4936 67.8272 97.8539 C 66.976 98.6667 66.192 98.7335 65.5424 98.0577 L 64.96 97.4936 L 64.96 92.868 L 64.96 88.2435 L 66.6849 88.1756 C 68.1408 88.1077 68.432 88.0409 68.4992 87.7025 C 68.5664 87.364 68.3649 87.3191 66.7744 87.3191 L 64.96 87.3191 L 64.96 85.6268 C 64.96 84.1382 64.9152 83.9345 64.5568 83.9345 C 64.2656 83.9345 64.064 84.2281 63.8624 85.0627 Z" fill="#ffffff"/>
		<path d="M 11.2 87.0255 C 9.4976 87.1832 8.96 87.3409 8.96 87.6575 C 8.96 87.882 9.2064 87.996 9.6991 87.996 C 10.1024 87.996 10.5504 88.1077 10.7072 88.2665 C 10.9089 88.4692 10.976 89.8448 10.976 93.0936 C 10.976 97.5615 10.9536 97.6732 10.4832 98.0117 C 10.2145 98.2154 9.744 98.3731 9.4752 98.3731 C 9.1616 98.3731 8.96 98.5078 8.96 98.7115 C 8.96 99.0051 9.4304 99.05 11.872 99.05 C 14.3136 99.05 14.784 99.0051 14.784 98.7115 C 14.784 98.5078 14.5825 98.3731 14.2689 98.3731 C 14 98.3731 13.5296 98.2154 13.2608 98.0117 C 12.7904 97.6732 12.768 97.5385 12.768 94.109 C 12.768 90.7704 12.7904 90.4999 13.2832 89.7781 C 14.336 88.1986 16.24 87.5447 17.696 88.2884 C 18.816 88.8525 19.04 89.7781 19.04 93.9064 C 19.04 97.5385 19.0176 97.6732 18.5472 98.0117 C 18.2785 98.2154 17.808 98.3731 17.5392 98.3731 C 17.2256 98.3731 17.024 98.5078 17.024 98.7115 C 17.024 99.0051 17.4944 99.05 19.936 99.05 C 22.3776 99.05 22.848 99.0051 22.848 98.7115 C 22.848 98.5078 22.6464 98.3731 22.3104 98.3731 C 22.0192 98.3731 21.5489 98.1694 21.2576 97.9449 C 20.7424 97.5154 20.72 97.3807 20.608 93.3423 C 20.496 89.5743 20.4512 89.1012 20.0256 88.5371 C 18.4576 86.4165 15.5008 86.3256 13.5072 88.3333 L 12.544 89.2808 L 12.544 88.0858 C 12.544 87.2512 12.4544 86.8678 12.2752 86.9127 C 12.1184 86.9127 11.6256 86.9807 11.2 87.0255 Z" fill="#ffffff"/>
		<path d="M 34.0481 87.0255 C 32.3456 87.1832 31.808 87.3409 31.808 87.6575 C 31.808 87.882 32.0544 87.996 32.5471 87.996 C 32.9504 87.996 33.3984 88.1077 33.5551 88.2665 C 33.7568 88.4692 33.824 89.8448 33.824 93.0936 C 33.824 97.5615 33.8016 97.6732 33.3312 98.0117 C 33.0624 98.2154 32.592 98.3731 32.3232 98.3731 C 32.0096 98.3731 31.808 98.5078 31.808 98.7115 C 31.808 99.0051 32.2784 99.05 34.7199 99.05 C 36.96 99.05 37.632 98.9821 37.632 98.7565 C 37.632 98.5988 37.2065 98.3731 36.6912 98.2372 C 35.952 98.0795 35.7056 97.8988 35.5936 97.4706 C 35.504 97.1552 35.4368 94.6501 35.4145 91.8756 C 35.392 88.0179 35.3248 86.8678 35.1231 86.9127 C 34.9664 86.9127 34.4736 86.9807 34.0481 87.0255 Z" fill="#ffffff"/>
		<path d="M 41.216 87.0255 C 39.6929 87.1384 39.2 87.2961 39.2 87.6575 C 39.2 87.8602 39.424 87.996 39.7824 87.996 C 40.096 87.996 40.544 88.1077 40.7905 88.2216 C 41.1936 88.4461 41.216 88.7397 41.216 93.0717 C 41.216 97.5615 41.216 97.6732 40.7231 98.0117 C 40.4544 98.2154 39.984 98.3731 39.7152 98.3731 C 39.4016 98.3731 39.2 98.5078 39.2 98.7115 C 39.2 99.0051 39.6704 99.05 42.112 99.05 C 44.352 99.05 45.024 98.9821 45.024 98.7565 C 45.024 98.5988 44.5984 98.3731 44.0831 98.2372 C 43.2544 98.0577 43.12 97.9449 42.9408 97.2679 C 42.8288 96.8386 42.784 95.1474 42.8288 93.523 C 42.896 90.7923 42.9408 90.4769 43.456 89.7101 C 44.464 88.1986 46.48 87.5666 47.9136 88.3333 C 49.0112 88.8974 49.28 90.0256 49.28 93.9743 C 49.28 97.177 49.2352 97.5154 48.832 97.9218 C 48.5856 98.1694 48.1376 98.3731 47.824 98.3731 C 47.4656 98.3731 47.264 98.5078 47.264 98.7115 C 47.264 99.0051 47.7344 99.05 50.176 99.05 C 52.5056 99.05 53.088 98.9821 53.088 98.7335 C 53.088 98.5538 52.7296 98.3731 52.2144 98.2822 C 51.7216 98.2154 51.2511 98.0117 51.1392 97.8539 C 51.0496 97.7181 50.9152 95.7115 50.848 93.4102 C 50.7136 88.7846 50.624 88.4012 49.2128 87.5447 C 47.488 86.4833 45.2704 86.7999 43.7472 88.3333 L 42.784 89.2808 L 42.784 88.0858 C 42.784 87.2281 42.6944 86.8897 42.5151 86.9127 C 42.3584 86.9346 41.776 86.9807 41.216 87.0255 Z" fill="#ffffff"/>
		<path d="M 56.672 87.0255 C 54.9695 87.1832 54.432 87.3409 54.432 87.6575 C 54.432 87.882 54.6784 87.996 55.1712 87.996 C 55.5744 87.996 56.0224 88.1077 56.1791 88.2665 C 56.3808 88.4692 56.448 89.8448 56.448 93.0936 C 56.448 97.5615 56.4256 97.6732 55.9551 98.0117 C 55.6864 98.2154 55.216 98.3731 54.9471 98.3731 C 54.6336 98.3731 54.432 98.5078 54.432 98.7115 C 54.432 99.0051 54.9024 99.05 57.344 99.05 C 59.584 99.05 60.256 98.9821 60.256 98.7565 C 60.256 98.5988 59.8304 98.3731 59.3152 98.2372 C 58.576 98.0795 58.3296 97.8988 58.2176 97.4706 C 58.128 97.1552 58.0609 94.6501 58.0384 91.8756 C 58.016 88.0179 57.9488 86.8678 57.7472 86.9127 C 57.5904 86.9127 57.0976 86.9807 56.672 87.0255 Z" fill="#ffffff"/>
		<path d="M 106.8928 87.0934 C 106.1311 87.1832 105.4369 87.3191 105.3697 87.3859 C 105.1008 87.6575 105.5489 87.996 106.176 87.996 C 107.4528 87.996 107.52 88.2665 107.52 92.9808 C 107.52 95.5078 107.4303 97.4475 107.296 97.7181 C 107.1391 97.9667 106.7137 98.1924 106.176 98.2822 C 105.6383 98.3731 105.28 98.5538 105.28 98.7335 C 105.28 98.9821 105.8849 99.05 108.3039 99.05 C 110.7231 99.05 111.328 98.9821 111.328 98.7335 C 111.328 98.5538 110.9697 98.3731 110.432 98.2822 C 109.1551 98.0795 109.0432 97.7181 109.1328 93.9743 C 109.2 90.7923 109.2 90.7255 109.872 89.7551 C 110.2528 89.2359 110.9023 88.559 111.328 88.2665 L 112.112 87.7473 L 112.2911 88.4243 C 112.4257 88.9883 112.5823 89.123 113.0751 89.123 C 113.8368 89.123 114.2401 88.7627 114.2401 88.0858 C 114.2401 86.8897 112.7839 86.5063 111.328 87.2961 C 110.9023 87.5217 110.208 88.1307 109.8271 88.6499 L 109.088 89.6204 L 109.088 88.2435 C 109.088 87.0704 109.0208 86.8678 108.7072 86.8897 C 108.4832 86.9127 107.6768 87.0025 106.8928 87.0934 Z" fill="#ffffff"/>
		<path d="M 119.056 87.3191 C 117.9583 87.8372 117.6224 88.1077 116.8832 89.123 C 116.0769 90.2512 115.7631 91.3795 115.7631 93.2974 C 115.7857 95.959 116.8608 97.8539 118.8768 98.8244 C 120.3104 99.5013 122.4608 99.5462 123.872 98.9142 C 124.9023 98.441 126.336 97.0193 126.336 96.4552 C 126.336 95.8013 125.8657 95.8911 125.1711 96.7039 C 123.8048 98.2822 121.9009 98.7565 120.1759 97.9449 C 118.5184 97.177 117.376 95.373 117.376 93.5 L 117.376 92.7333 L 121.9902 92.7333 L 126.6271 92.7333 L 126.4929 91.627 C 126.2463 89.6204 125.0592 87.9281 123.3791 87.2281 C 122.2143 86.732 120.1537 86.7769 119.056 87.3191 ZM 123.088 88.1986 C 123.872 88.6499 124.544 89.7551 124.7679 90.9512 L 124.9248 91.8307 L 121.1617 91.8307 L 117.4208 91.8307 L 117.6448 90.9731 C 118.1376 89.191 118.8096 88.3793 120.2208 87.8602 C 121.1617 87.5217 122.08 87.6345 123.088 88.1986 Z" fill="#ffffff"/>
		<path d="M 132.8542 87.1153 C 131.712 87.4538 130.0991 89.2359 129.6288 90.6807 C 128.6208 93.8154 129.7856 97.4706 132.1823 98.7115 C 134.7583 100.0654 138.2303 99.2975 139.5743 97.0872 C 139.9551 96.4552 140 96.2526 139.776 96.1167 C 139.5743 95.9821 139.1711 96.2526 138.5216 96.9064 C 137.0656 98.418 135.2737 98.7565 133.504 97.8539 C 132.0704 97.1321 131.1968 95.8013 131.0849 94.0871 L 130.9951 92.7333 L 135.4977 92.7333 L 140 92.7333 L 140 91.7628 C 140 89.8 138.5216 87.7473 136.6623 87.1153 C 135.7663 86.8218 133.9072 86.8218 132.8542 87.1153 ZM 136.7072 88.1756 C 137.3791 88.582 138.432 90.4769 138.432 91.3115 L 138.432 91.8307 L 134.736 91.8307 C 130.5696 91.8307 130.6592 91.8756 131.4657 90.1384 C 132.5183 87.8372 134.736 87.0025 136.7072 88.1756 Z" fill="#ffffff"/>
		<path d="M 68.768 87.6575 C 68.768 87.8602 68.9695 87.996 69.2832 87.996 C 69.5744 87.996 69.9776 88.1756 70.2016 88.4012 C 70.4031 88.6499 71.568 91.1089 72.8 93.8834 L 75.04 98.9372 L 74.48 100.5167 C 73.8976 102.0501 73.3823 102.8848 72.9792 102.8848 C 72.8897 102.8848 72.8 102.7051 72.8 102.4784 C 72.8 101.5309 71.232 101.1257 70.7839 101.9603 C 70 103.4719 71.7471 104.577 73.472 103.6745 C 74.3232 103.2462 74.2783 103.3141 77.3696 95.5526 C 80.0128 88.9653 80.5503 87.996 81.5583 87.996 C 81.7823 87.996 81.984 87.8372 81.984 87.6575 C 81.984 87.3859 81.5808 87.3191 79.632 87.3191 C 77.6831 87.3191 77.28 87.3859 77.28 87.6575 C 77.28 87.8372 77.4817 87.996 77.7057 87.996 C 78.4671 87.996 78.848 88.2665 78.848 88.7846 C 78.848 89.191 76.0703 96.7039 75.824 96.9744 C 75.8017 97.0193 74.9728 95.1923 74.032 92.9359 C 72.1951 88.559 72.1503 88.1756 73.3377 88.0409 C 73.6512 87.996 73.92 87.8152 73.92 87.6345 C 73.92 87.3859 73.4272 87.3191 71.344 87.3191 C 69.1935 87.3191 68.768 87.3859 68.768 87.6575 Z" fill="#ffffff"/>
	</g>
</svg>