<?xml version="1.0" encoding="utf-8"?>
<!-- Generator: Adobe Illustrator 25.0.0, SVG Export Plug-In . SVG Version: 6.00 Build 0)  -->
<svg version="1.1" id="レイヤー_1" xmlns="http://www.w3.org/2000/svg" xmlns:xlink="http://www.w3.org/1999/xlink" x="0px"
	 y="0px" viewBox="0 0 745.92 133.55" style="enable-background:new 0 0 745.92 133.55;" xml:space="preserve">
<style type="text/css">
	.st0{fill:#FFFFFF;}
</style>
<g>
	<path class="st0" d="M470.9,69.6c-0.6,1.97-2.78,3.59-4.83,3.6l-49.29,0.34c-2.06,0.01-3.25-1.58-2.65-3.55l2.77-9.05
		c0.6-1.97,2.78-3.59,4.83-3.6L471.02,57c2.06-0.01,3.25,1.58,2.65,3.55L470.9,69.6z"/>
	<path class="st0" d="M645.89,69.6c-0.6,1.97-2.78,3.59-4.83,3.6l-49.29,0.34c-2.06,0.01-3.25-1.58-2.65-3.55l2.77-9.05
		c0.6-1.97,2.78-3.59,4.83-3.6L646.01,57c2.06-0.01,3.25,1.58,2.65,3.55L645.89,69.6z"/>
	<path class="st0" d="M314.96,19.85c-2.06,0-5.42,0-7.48,0h-21.79c-2.06,0-5.42,0-7.48,0h-7.23c-2.06,0-5.42,0-7.48,0h-16.21
		c-2.06,0-5.42,0-7.48,0h-5.36c-2.06,0-5.42,0-7.48,0h-17.11c-2.06,0-5.42,0-7.48,0h-7.83c-2.06,0-4.26,1.6-4.9,3.56l-34.62,106.54
		c-0.64,1.96,0.53,3.56,2.58,3.56h2.54c2.06,0,5.42,0,7.48,0h22.4c2.06,0,5.42,0,7.48,0h7.23c2.06,0,5.42,0,7.48,0h16.21
		c2.06,0,5.42,0,7.48,0h5.36c2.06,0,5.42,0,7.48,0h16.5c2.06,0,5.42,0,7.48,0h8.44c2.06,0,4.26-1.6,4.9-3.56l34.62-106.54
		c0.64-1.96-0.53-3.56-2.58-3.56H314.96z M272.97,35.96c2.06,0,3.22,1.6,2.58,3.56L267,65.83c-0.64,1.96-2.84,3.56-4.9,3.56h-6.42
		c-2.06,0-3.24-1.61-2.64-3.57l8.11-26.29c0.61-1.97,2.79-3.57,4.84-3.57H272.97z M234.84,35.96c2.06,0,3.24,1.61,2.64,3.57
		l-8.11,26.29c-0.61,1.97-2.79,3.57-4.84,3.57h-6.18c-2.06,0-3.22-1.6-2.58-3.56l8.55-26.32c0.64-1.96,2.84-3.56,4.9-3.56H234.84z
		 M202.75,117.4c-2.06,0-3.22-1.6-2.58-3.56l8.05-24.79c0.64-1.96,2.84-3.56,4.9-3.56h6.44c2.06,0,3.24,1.61,2.64,3.57l-7.64,24.75
		c-0.61,1.97-2.79,3.57-4.84,3.57H202.75z M240.88,117.4c-2.06,0-3.24-1.61-2.64-3.57l7.64-24.75c0.61-1.97,2.79-3.57,4.84-3.57
		h6.15c2.06,0,3.22,1.6,2.58,3.56l-8.05,24.79c-0.64,1.96-2.84,3.56-4.9,3.56H240.88z"/>
	<g>
		<g>
			<path class="st0" d="M143.84,0c-2.06,0-3.74,1.68-3.74,3.74v8.73c0,2.06,1.68,3.74,3.74,3.74h18.7c2.06,0,3.74-1.68,3.74-3.74
				V3.74c0-2.06-1.68-3.74-3.74-3.74H143.84z"/>
		</g>
		<g>
			<path class="st0" d="M128.3,3.71C128.05,1.67,126.16,0,124.1,0h-16.21c-2.06,0-3.54,1.67-3.28,3.71l1.52,12.37
				c0.25,2.04-1.23,3.71-3.28,3.71H39.69c-2.06,0-3.74,0.01-3.74,0.03s-0.52,1.63-1.16,3.58L0.17,129.95
				c-0.64,1.96,0.53,3.56,2.58,3.56h32.42c2.06,0,4.26-1.6,4.9-3.56L51.69,94.2c0.64-1.96,2.82-3.56,4.85-3.56
				c2.03,0,3.17,1.6,2.54,3.56l-11.62,35.75c-0.64,1.96,0.53,3.56,2.58,3.56h32.42c2.06,0,4.26-1.6,4.9-3.56l16.88-51.96
				c0.64-1.96-0.53-3.56-2.58-3.56h-0.76c-2.06,0-5.42,0-7.48,0H69.23c-2.06,0-5.4,0-7.43,0s-3.17-1.6-2.54-3.56l10.17-31.31
				c0.64-1.96,2.84-3.56,4.9-3.56h30.5c2.06,0,3.95,1.67,4.2,3.71l3.25,26.47c0.25,2.04-0.65,3.91-2.01,4.15
				c-1.36,0.24-2.46,2.12-2.46,4.17v14.34c0,2.06,1.66,3.45,3.68,3.09l0.18-0.03c2.03-0.36,3.89,1.02,4.14,3.06l4.14,33.74
				c0.25,2.04,2.14,3.71,4.2,3.71h16.21c2.06,0,3.54-1.67,3.28-3.71L139,90.88c-0.25-2.04,1.2-4,3.23-4.36l9.97-1.76
				c2.03-0.36,3.68-2.33,3.68-4.39V66.04c0-2.06-1.66-3.45-3.68-3.09l-12.59,2.22c-2.03,0.36-3.89-1.02-4.14-3.06l-2.75-22.38
				c-0.25-2.04,1.23-3.71,3.28-3.71h21.21c2.06,0,3.74-1.68,3.74-3.74v-8.73c0-2.06-1.68-3.74-3.74-3.74h-23.2
				c-2.06,0-3.95-1.67-4.2-3.71L128.3,3.71z"/>
		</g>
	</g>
	<path class="st0" d="M415.33,35.69c2.06-0.01,4.23-1.63,4.83-3.59l2.77-9.05c0.6-1.97-0.59-3.57-2.65-3.56l-82.47,0.36
		c-2.06,0.01-4.23,1.63-4.83,3.59l-2.77,9.05c-0.6,1.97,0.59,3.57,2.65,3.56l18.22-0.08c2.06-0.01,3.22,1.58,2.58,3.54l-4.61,14.18
		c-0.64,1.96-2.84,3.56-4.9,3.57l-19.86,0.09c-2.06,0.01-4.23,1.63-4.83,3.59l-2.77,9.05c-0.6,1.97,0.59,3.57,2.65,3.56l19.54-0.08
		c2.06-0.01,3.22,1.58,2.58,3.54l-17.2,52.94c-0.64,1.96,0.53,3.56,2.58,3.56h8.6c2.06,0,3.71,0.01,3.68,0.03
		c-0.03,0.02,1.62,0.02,3.68,0.01l57.68-0.34c2.06-0.01,4.24-1.63,4.85-3.59l2.73-8.74c0.61-1.96-0.57-3.56-2.63-3.55l-33.52,0.2
		c-2.06,0.01-3.22-1.58-2.58-3.54l12.07-37.15c0.64-1.96,2.84-3.56,4.9-3.57l15.5-0.07c2.06-0.01,4.23-1.63,4.83-3.59l2.77-9.05
		c0.6-1.97-0.59-3.57-2.65-3.56l-15.18,0.07c-2.06,0.01-3.22-1.58-2.58-3.54l4.61-14.18c0.64-1.96,2.84-3.56,4.9-3.57L415.33,35.69z
		"/>
	<path class="st0" d="M589.78,19.85c-2.06,0-3.71-0.09-3.68-0.19s-1.62-0.18-3.68-0.17l-40.44,0.24c-2.06,0.01-3.23-1.54-2.61-3.45
		c0.62-1.91-0.55-3.47-2.61-3.47h-32.42c-2.06,0-4.26,1.6-4.9,3.56l-18.69,57.53c-0.64,1.96,0.53,3.56,2.58,3.56h32.42
		c2.06,0,4.26-1.6,4.9-3.56l11.17-34.37c0.64-1.96,2.84-3.57,4.9-3.58l8.85-0.05c2.06-0.01,3.22,1.58,2.58,3.53l-5.9,18.15
		c-0.64,1.96-2.84,3.57-4.9,3.59l-5.33,0.05c-2.06,0.02-4.23,1.64-4.83,3.61l-2.77,9.05c-0.6,1.97,0.59,3.56,2.65,3.55l5.02-0.04
		c2.06-0.02,3.22,1.57,2.58,3.53l-15.94,49.05c-0.64,1.96,0.53,3.56,2.58,3.56h32.42c2.06,0,4.26-1.6,4.9-3.56l34.62-106.54
		c0.64-1.96-0.53-3.56-2.58-3.56H589.78z"/>
	<path class="st0" d="M743.12,133.51c2.06,0,3.25-1.61,2.65-3.58l-16.14-52.78c-0.6-1.97-1.99-3.58-3.09-3.58
		c-1.1,0-1.48-1.6-0.84-3.56l15.14-46.6c0.64-1.96-0.53-3.56-2.58-3.56h-7.09c-2.06,0-3.71-0.09-3.68-0.19s-1.62-0.18-3.68-0.17
		l-57.21,0.34c-2.06,0.01-4.23,1.63-4.83,3.6l-2.77,9.05c-0.6,1.97,0.59,3.57,2.65,3.55l31.53-0.19c2.06-0.01,3.22,1.58,2.58,3.53
		l-29.43,90.57c-0.64,1.96,0.53,3.56,2.58,3.56h32.42c2.06,0,4.26-1.6,4.9-3.56l7.02-21.6c0.64-1.96,1.65-1.95,2.25,0.02l6.59,21.56
		c0.6,1.97,2.78,3.58,4.83,3.58H743.12z"/>
</g>
</svg>
